<svg width="151" height="32" viewBox="0 0 151 32" fill="none" xmlns="http://www.w3.org/2000/svg">
<path d="M57.46 23H54.08L51.28 13.42H51.22L48.42 23H45.02L41 8.84H44.68L46.92 18.26H46.98L49.5 8.84H53.06L55.6 18.26H55.66L57.94 8.84H61.5L57.46 23ZM72.6252 17.98C72.6252 18.7933 72.4785 19.5333 72.1852 20.2C71.8918 20.8533 71.4918 21.4133 70.9852 21.88C70.4785 22.3333 69.8918 22.6867 69.2252 22.94C68.5585 23.1933 67.8452 23.32 67.0852 23.32C66.3385 23.32 65.6252 23.1933 64.9452 22.94C64.2785 22.6867 63.6918 22.3333 63.1852 21.88C62.6918 21.4133 62.2985 20.8533 62.0052 20.2C61.7118 19.5333 61.5652 18.7933 61.5652 17.98C61.5652 17.1667 61.7118 16.4333 62.0052 15.78C62.2985 15.1267 62.6918 14.5733 63.1852 14.12C63.6918 13.6667 64.2785 13.32 64.9452 13.08C65.6252 12.84 66.3385 12.72 67.0852 12.72C67.8452 12.72 68.5585 12.84 69.2252 13.08C69.8918 13.32 70.4785 13.6667 70.9852 14.12C71.4918 14.5733 71.8918 15.1267 72.1852 15.78C72.4785 16.4333 72.6252 17.1667 72.6252 17.98ZM69.4652 17.98C69.4652 17.66 69.4118 17.3467 69.3052 17.04C69.1985 16.7333 69.0452 16.4667 68.8452 16.24C68.6452 16 68.3985 15.8067 68.1052 15.66C67.8118 15.5133 67.4718 15.44 67.0852 15.44C66.6985 15.44 66.3585 15.5133 66.0652 15.66C65.7718 15.8067 65.5252 16 65.3252 16.24C65.1385 16.4667 64.9918 16.7333 64.8852 17.04C64.7918 17.3467 64.7452 17.66 64.7452 17.98C64.7452 18.3 64.7918 18.6133 64.8852 18.92C64.9918 19.2267 65.1452 19.5067 65.3452 19.76C65.5452 20 65.7918 20.1933 66.0852 20.34C66.3785 20.4867 66.7185 20.56 67.1052 20.56C67.4918 20.56 67.8318 20.4867 68.1252 20.34C68.4185 20.1933 68.6652 20 68.8652 19.76C69.0652 19.5067 69.2118 19.2267 69.3052 18.92C69.4118 18.6133 69.4652 18.3 69.4652 17.98ZM81.1619 15.72C81.0152 15.68 80.8685 15.6533 80.7219 15.64C80.5885 15.6267 80.4552 15.62 80.3219 15.62C79.8819 15.62 79.5085 15.7 79.2019 15.86C78.9085 16.02 78.6685 16.2133 78.4819 16.44C78.3085 16.6667 78.1819 16.9133 78.1019 17.18C78.0219 17.4467 77.9819 17.68 77.9819 17.88V23H74.7019V13.04H77.8619V14.48H77.9019C78.1552 13.9733 78.5152 13.56 78.9819 13.24C79.4485 12.92 79.9885 12.76 80.6019 12.76C80.7352 12.76 80.8619 12.7667 80.9819 12.78C81.1152 12.7933 81.2219 12.8133 81.3019 12.84L81.1619 15.72ZM93.3316 23H89.2716L86.0116 18.22H85.9516V23H82.6516V7.88H85.9516V17.08H86.0116L89.1916 13.04H93.1716L89.3316 17.54L93.3316 23ZM100.706 10.3C100.586 10.26 100.446 10.2267 100.286 10.2C100.126 10.1733 99.9661 10.16 99.8061 10.16C99.4994 10.16 99.2528 10.2133 99.0661 10.32C98.8794 10.4267 98.7328 10.5733 98.6261 10.76C98.5194 10.9333 98.4461 11.1333 98.4061 11.36C98.3661 11.5867 98.3461 11.8133 98.3461 12.04V13.04H100.566V15.5H98.3461V23H95.0661V15.5H93.2461V13.04H95.0661V12.08C95.0661 11.4667 95.1328 10.8867 95.2661 10.34C95.3994 9.78 95.6261 9.29333 95.9461 8.88C96.2794 8.45333 96.7194 8.12 97.2661 7.88C97.8261 7.62667 98.5194 7.5 99.3461 7.5C99.6261 7.5 99.8994 7.52 100.166 7.56C100.446 7.58667 100.699 7.63333 100.926 7.7L100.706 10.3ZM107.691 18.66H107.271C106.911 18.66 106.545 18.68 106.171 18.72C105.811 18.7467 105.485 18.8067 105.191 18.9C104.911 18.9933 104.678 19.1333 104.491 19.32C104.305 19.4933 104.211 19.7267 104.211 20.02C104.211 20.2067 104.251 20.3667 104.331 20.5C104.425 20.6333 104.538 20.74 104.671 20.82C104.805 20.9 104.958 20.96 105.131 21C105.305 21.0267 105.471 21.04 105.631 21.04C106.298 21.04 106.805 20.86 107.151 20.5C107.511 20.1267 107.691 19.6267 107.691 19V18.66ZM101.671 14.4C102.258 13.84 102.938 13.42 103.711 13.14C104.498 12.86 105.298 12.72 106.111 12.72C106.951 12.72 107.658 12.8267 108.231 13.04C108.818 13.24 109.291 13.56 109.651 14C110.011 14.4267 110.271 14.9733 110.431 15.64C110.605 16.2933 110.691 17.0733 110.691 17.98V23H107.691V21.94H107.631C107.378 22.3533 106.991 22.6733 106.471 22.9C105.965 23.1267 105.411 23.24 104.811 23.24C104.411 23.24 103.998 23.1867 103.571 23.08C103.145 22.9733 102.751 22.8 102.391 22.56C102.045 22.32 101.758 22 101.531 21.6C101.305 21.2 101.191 20.7067 101.191 20.12C101.191 19.4 101.385 18.82 101.771 18.38C102.171 17.94 102.678 17.6 103.291 17.36C103.918 17.12 104.611 16.96 105.371 16.88C106.131 16.8 106.871 16.76 107.591 16.76V16.6C107.591 16.1067 107.418 15.7467 107.071 15.52C106.725 15.28 106.298 15.16 105.791 15.16C105.325 15.16 104.871 15.26 104.431 15.46C104.005 15.66 103.638 15.9 103.331 16.18L101.671 14.4ZM118.999 15.98C118.733 15.7267 118.419 15.5133 118.059 15.34C117.699 15.1667 117.319 15.08 116.919 15.08C116.613 15.08 116.326 15.14 116.059 15.26C115.806 15.38 115.679 15.5867 115.679 15.88C115.679 16.16 115.819 16.36 116.099 16.48C116.393 16.6 116.859 16.7333 117.499 16.88C117.873 16.96 118.246 17.0733 118.619 17.22C119.006 17.3667 119.353 17.56 119.659 17.8C119.966 18.04 120.213 18.3333 120.399 18.68C120.586 19.0267 120.679 19.44 120.679 19.92C120.679 20.5467 120.553 21.08 120.299 21.52C120.046 21.9467 119.713 22.2933 119.299 22.56C118.899 22.8267 118.446 23.02 117.939 23.14C117.433 23.26 116.926 23.32 116.419 23.32C115.606 23.32 114.806 23.1933 114.019 22.94C113.246 22.6733 112.599 22.2867 112.079 21.78L113.919 19.84C114.213 20.16 114.573 20.4267 114.999 20.64C115.426 20.8533 115.879 20.96 116.359 20.96C116.626 20.96 116.886 20.9 117.139 20.78C117.406 20.6467 117.539 20.42 117.539 20.1C117.539 19.7933 117.379 19.5667 117.059 19.42C116.739 19.2733 116.239 19.12 115.559 18.96C115.213 18.88 114.866 18.7733 114.519 18.64C114.173 18.5067 113.859 18.3267 113.579 18.1C113.313 17.8733 113.093 17.5933 112.919 17.26C112.746 16.9267 112.659 16.5267 112.659 16.06C112.659 15.46 112.786 14.9533 113.039 14.54C113.293 14.1133 113.619 13.7667 114.019 13.5C114.419 13.2333 114.859 13.04 115.339 12.92C115.833 12.7867 116.319 12.72 116.799 12.72C117.546 12.72 118.273 12.84 118.979 13.08C119.699 13.3067 120.306 13.6533 120.799 14.12L118.999 15.98ZM126.133 15.5V19.3C126.133 19.7667 126.22 20.12 126.393 20.36C126.58 20.5867 126.906 20.7 127.373 20.7C127.533 20.7 127.7 20.6867 127.873 20.66C128.06 20.6333 128.213 20.5933 128.333 20.54L128.373 22.94C128.146 23.02 127.86 23.0867 127.513 23.14C127.166 23.2067 126.82 23.24 126.473 23.24C125.806 23.24 125.246 23.16 124.793 23C124.34 22.8267 123.973 22.5867 123.693 22.28C123.426 21.96 123.233 21.5867 123.113 21.16C122.993 20.72 122.933 20.2333 122.933 19.7V15.5H121.333V13.04H122.913V10.42H126.133V13.04H128.473V15.5H126.133ZM133.754 21.24C133.754 21.8 133.554 22.2667 133.154 22.64C132.768 23.0133 132.301 23.2 131.754 23.2C131.474 23.2 131.208 23.1467 130.954 23.04C130.714 22.9467 130.501 22.8133 130.314 22.64C130.128 22.4667 129.981 22.2667 129.874 22.04C129.768 21.8 129.714 21.54 129.714 21.26C129.714 20.9933 129.768 20.74 129.874 20.5C129.981 20.26 130.128 20.0533 130.314 19.88C130.501 19.6933 130.714 19.5467 130.954 19.44C131.208 19.3333 131.474 19.28 131.754 19.28C132.301 19.28 132.768 19.4667 133.154 19.84C133.554 20.2133 133.754 20.68 133.754 21.24ZM142.25 16.86C142.25 16.1533 142.037 15.6333 141.61 15.3C141.184 14.9533 140.617 14.78 139.91 14.78C139.377 14.78 138.87 14.8867 138.39 15.1C137.924 15.3 137.53 15.56 137.21 15.88L136.21 14.68C136.677 14.24 137.244 13.8933 137.91 13.64C138.59 13.3867 139.317 13.26 140.09 13.26C140.77 13.26 141.357 13.36 141.85 13.56C142.357 13.7467 142.77 14.0067 143.09 14.34C143.41 14.6733 143.65 15.0667 143.81 15.52C143.97 15.9733 144.05 16.46 144.05 16.98V21.12C144.05 21.44 144.057 21.78 144.07 22.14C144.097 22.4867 144.137 22.7733 144.19 23H142.49C142.384 22.5467 142.33 22.0933 142.33 21.64H142.27C141.924 22.1467 141.484 22.54 140.95 22.82C140.43 23.1 139.81 23.24 139.09 23.24C138.717 23.24 138.324 23.1867 137.91 23.08C137.51 22.9867 137.144 22.8267 136.81 22.6C136.477 22.3733 136.197 22.0733 135.97 21.7C135.757 21.3267 135.65 20.8667 135.65 20.32C135.65 19.6 135.844 19.0333 136.23 18.62C136.617 18.1933 137.124 17.8733 137.75 17.66C138.377 17.4333 139.084 17.2867 139.87 17.22C140.657 17.1533 141.45 17.12 142.25 17.12V16.86ZM141.79 18.48C141.324 18.48 140.837 18.5 140.33 18.54C139.837 18.58 139.384 18.66 138.97 18.78C138.57 18.9 138.237 19.08 137.97 19.32C137.704 19.56 137.57 19.88 137.57 20.28C137.57 20.56 137.624 20.7933 137.73 20.98C137.85 21.1667 138.004 21.32 138.19 21.44C138.377 21.56 138.584 21.6467 138.81 21.7C139.037 21.74 139.27 21.76 139.51 21.76C140.39 21.76 141.064 21.5 141.53 20.98C142.01 20.4467 142.25 19.78 142.25 18.98V18.48H141.79ZM149.09 23H147.21V13.52H149.09V23ZM149.41 10.1C149.41 10.4467 149.284 10.7333 149.03 10.96C148.79 11.1867 148.497 11.3 148.15 11.3C147.804 11.3 147.51 11.1867 147.27 10.96C147.03 10.72 146.91 10.4333 146.91 10.1C146.91 9.75333 147.03 9.46667 147.27 9.24C147.51 9 147.804 8.88 148.15 8.88C148.497 8.88 148.79 9 149.03 9.24C149.284 9.46667 149.41 9.75333 149.41 10.1Z" fill="#ADB3C7"/>
<g clip-path="url(#clip0_193_13647)">
<mask id="path-3-inside-1_193_13647" fill="white">
<path d="M0 0H32V32H0V0Z"/>
</mask>
<path d="M0 0H32V32H0V0Z" fill="url(#paint0_linear_193_13647)"/>
<path d="M0 0.165517H32V-0.165517H0V0.165517Z" fill="url(#paint1_linear_193_13647)" mask="url(#path-3-inside-1_193_13647)"/>
<g filter="url(#filter0_f_193_13647)">
<circle cx="2.86606" cy="3.53012" r="2.53793" fill="url(#paint2_linear_193_13647)"/>
</g>
<path d="M28.1082 2.86142C25.0197 1.15678 22.3174 1.92677 15.8647 0.441926C14.8756 0.214327 13.3838 0.0979443 11.8552 0.0430801L5.9375 0.0557352C5.9375 0.0557352 8.96236 -0.0607429 11.8552 0.0430801L32 0V9.625C32 9.625 31.1966 4.56606 28.1082 2.86142Z" fill="url(#paint3_linear_193_13647)"/>
<g filter="url(#filter1_f_193_13647)">
<ellipse cx="25.176" cy="4.57893" rx="2.03143" ry="2.03206" fill="url(#paint4_linear_193_13647)"/>
<path d="M27.1934 4.57893C27.1934 5.69347 26.2901 6.59697 25.176 6.59697C24.0618 6.59697 23.1585 5.69347 23.1585 4.57893C23.1585 3.4644 24.0618 2.56089 25.176 2.56089C26.2901 2.56089 27.1934 3.4644 27.1934 4.57893Z" stroke="url(#paint5_linear_193_13647)" stroke-width="0.0280372"/>
</g>
<g filter="url(#filter2_d_193_13647)">
<ellipse cx="25.3166" cy="4.43831" rx="2.03143" ry="2.03206" fill="url(#paint6_linear_193_13647)"/>
</g>
<g filter="url(#filter3_d_193_13647)">
<ellipse cx="16" cy="17.1211" rx="12.4688" ry="12.4726" fill="url(#paint7_linear_193_13647)"/>
<path d="M28.3286 17.1211C28.3286 23.9322 22.8088 29.4536 16 29.4536C9.19116 29.4536 3.67144 23.9322 3.67144 17.1211C3.67144 10.3101 9.19116 4.7887 16 4.7887C22.8088 4.7887 28.3286 10.3101 28.3286 17.1211Z" stroke="url(#paint8_linear_193_13647)" stroke-width="0.280372"/>
</g>
<g filter="url(#filter4_d_193_13647)">
<ellipse cx="15.9975" cy="17.1215" rx="8.96629" ry="8.96908" fill="url(#paint9_linear_193_13647)"/>
<path d="M24.8237 17.1215C24.8237 21.9976 20.872 25.9504 15.9975 25.9504C11.1231 25.9504 7.17144 21.9976 7.17144 17.1215C7.17144 12.2454 11.1231 8.29261 15.9975 8.29261C20.872 8.29261 24.8237 12.2454 24.8237 17.1215Z" stroke="url(#paint10_linear_193_13647)" stroke-width="0.280372"/>
</g>
<g filter="url(#filter5_di_193_13647)">
<ellipse cx="16.2107" cy="17.1929" rx="5.25368" ry="5.25532" fill="url(#paint11_linear_193_13647)"/>
<path d="M21.3242 17.1929C21.3242 20.0179 19.0348 22.308 16.2107 22.308C13.3866 22.308 11.0972 20.0179 11.0972 17.1929C11.0972 14.3678 13.3866 12.0778 16.2107 12.0778C19.0348 12.0778 21.3242 14.3678 21.3242 17.1929Z" stroke="url(#paint12_linear_193_13647)" stroke-width="0.280372"/>
</g>
</g>
<defs>
<filter id="filter0_f_193_13647" x="0.21778" y="0.881843" width="5.2965" height="5.29656" filterUnits="userSpaceOnUse" color-interpolation-filters="sRGB">
<feFlood flood-opacity="0" result="BackgroundImageFix"/>
<feBlend mode="normal" in="SourceGraphic" in2="BackgroundImageFix" result="shape"/>
<feGaussianBlur stdDeviation="0.0551724" result="effect1_foregroundBlur_193_13647"/>
</filter>
<filter id="filter1_f_193_13647" x="22.724" y="2.12632" width="4.90398" height="4.90523" filterUnits="userSpaceOnUse" color-interpolation-filters="sRGB">
<feFlood flood-opacity="0" result="BackgroundImageFix"/>
<feBlend mode="normal" in="SourceGraphic" in2="BackgroundImageFix" result="shape"/>
<feGaussianBlur stdDeviation="0.210279" result="effect1_foregroundBlur_193_13647"/>
</filter>
<filter id="filter2_d_193_13647" x="20.2011" y="2.26606" width="7.14696" height="7.14821" filterUnits="userSpaceOnUse" color-interpolation-filters="sRGB">
<feFlood flood-opacity="0" result="BackgroundImageFix"/>
<feColorMatrix in="SourceAlpha" type="matrix" values="0 0 0 0 0 0 0 0 0 0 0 0 0 0 0 0 0 0 127 0" result="hardAlpha"/>
<feOffset dx="-1.54205" dy="1.40186"/>
<feGaussianBlur stdDeviation="0.771024"/>
<feComposite in2="hardAlpha" operator="out"/>
<feColorMatrix type="matrix" values="0 0 0 0 0.980392 0 0 0 0 0.498039 0 0 0 0 0.0117647 0 0 0 0.79 0"/>
<feBlend mode="normal" in2="BackgroundImageFix" result="effect1_dropShadow_193_13647"/>
<feBlend mode="normal" in="SourceGraphic" in2="effect1_dropShadow_193_13647" result="shape"/>
</filter>
<filter id="filter3_d_193_13647" x="-2.21638" y="4.08777" width="33.3487" height="33.3564" filterUnits="userSpaceOnUse" color-interpolation-filters="sRGB">
<feFlood flood-opacity="0" result="BackgroundImageFix"/>
<feColorMatrix in="SourceAlpha" type="matrix" values="0 0 0 0 0 0 0 0 0 0 0 0 0 0 0 0 0 0 127 0" result="hardAlpha"/>
<feOffset dx="-1.54205" dy="3.64484"/>
<feGaussianBlur stdDeviation="2.10279"/>
<feComposite in2="hardAlpha" operator="out"/>
<feColorMatrix type="matrix" values="0 0 0 0 0.956863 0 0 0 0 0.419608 0 0 0 0 0.0862745 0 0 0 0.82 0"/>
<feBlend mode="normal" in2="BackgroundImageFix" result="effect1_dropShadow_193_13647"/>
<feBlend mode="normal" in="SourceGraphic" in2="effect1_dropShadow_193_13647" result="shape"/>
</filter>
<filter id="filter4_d_193_13647" x="4.5079" y="7.17112" width="21.0167" height="21.0222" filterUnits="userSpaceOnUse" color-interpolation-filters="sRGB">
<feFlood flood-opacity="0" result="BackgroundImageFix"/>
<feColorMatrix in="SourceAlpha" type="matrix" values="0 0 0 0 0 0 0 0 0 0 0 0 0 0 0 0 0 0 127 0" result="hardAlpha"/>
<feOffset dx="-0.981303" dy="0.560744"/>
<feGaussianBlur stdDeviation="0.771024"/>
<feComposite in2="hardAlpha" operator="out"/>
<feColorMatrix type="matrix" values="0 0 0 0 0.968627 0 0 0 0 0.0470588 0 0 0 0 0.309804 0 0 0 1 0"/>
<feBlend mode="normal" in2="BackgroundImageFix" result="effect1_dropShadow_193_13647"/>
<feBlend mode="normal" in="SourceGraphic" in2="effect1_dropShadow_193_13647" result="shape"/>
</filter>
<filter id="filter5_di_193_13647" x="8.85424" y="11.9376" width="13.0307" height="14.0153" filterUnits="userSpaceOnUse" color-interpolation-filters="sRGB">
<feFlood flood-opacity="0" result="BackgroundImageFix"/>
<feColorMatrix in="SourceAlpha" type="matrix" values="0 0 0 0 0 0 0 0 0 0 0 0 0 0 0 0 0 0 127 0" result="hardAlpha"/>
<feOffset dx="-0.841117" dy="1.26168"/>
<feGaussianBlur stdDeviation="0.630838"/>
<feComposite in2="hardAlpha" operator="out"/>
<feColorMatrix type="matrix" values="0 0 0 0 0.968627 0 0 0 0 0.113725 0 0 0 0 0.270588 0 0 0 1 0"/>
<feBlend mode="normal" in2="BackgroundImageFix" result="effect1_dropShadow_193_13647"/>
<feBlend mode="normal" in="SourceGraphic" in2="effect1_dropShadow_193_13647" result="shape"/>
<feColorMatrix in="SourceAlpha" type="matrix" values="0 0 0 0 0 0 0 0 0 0 0 0 0 0 0 0 0 0 127 0" result="hardAlpha"/>
<feOffset dx="-0.981303" dy="3.50465"/>
<feGaussianBlur stdDeviation="2.45326"/>
<feComposite in2="hardAlpha" operator="arithmetic" k2="-1" k3="1"/>
<feColorMatrix type="matrix" values="0 0 0 0 0.992157 0 0 0 0 0.584314 0 0 0 0 0.0784314 0 0 0 1 0"/>
<feBlend mode="normal" in2="shape" result="effect2_innerShadow_193_13647"/>
</filter>
<linearGradient id="paint0_linear_193_13647" x1="27.6414" y1="-1.90476" x2="3.13191" y2="30.474" gradientUnits="userSpaceOnUse">
<stop stop-color="#FDD01F"/>
<stop offset="0.369907" stop-color="#FDD320"/>
<stop offset="0.496817" stop-color="#F8C240"/>
<stop offset="1" stop-color="#F8861B"/>
</linearGradient>
<linearGradient id="paint1_linear_193_13647" x1="16" y1="0" x2="16" y2="32" gradientUnits="userSpaceOnUse">
<stop stop-color="#FDE77F"/>
<stop offset="1" stop-color="#F99D40"/>
</linearGradient>
<linearGradient id="paint2_linear_193_13647" x1="5.07295" y1="3.30943" x2="1.26606" y2="4.3577" gradientUnits="userSpaceOnUse">
<stop stop-color="#FCAF0C"/>
<stop offset="1" stop-color="#FCB50D" stop-opacity="0"/>
</linearGradient>
<linearGradient id="paint3_linear_193_13647" x1="27.8875" y1="4.83973" x2="29.5888" y2="0.93187" gradientUnits="userSpaceOnUse">
<stop stop-color="#FFDD4D"/>
<stop offset="1" stop-color="#FEF4CB"/>
</linearGradient>
<linearGradient id="paint4_linear_193_13647" x1="23.7049" y1="5.20957" x2="26.0175" y2="2.05706" gradientUnits="userSpaceOnUse">
<stop stop-color="#F97B04"/>
<stop offset="1" stop-color="#FEE43B"/>
</linearGradient>
<linearGradient id="paint5_linear_193_13647" x1="26.2967" y1="2.68702" x2="22.7232" y2="5.90917" gradientUnits="userSpaceOnUse">
<stop stop-color="#FEF1AC"/>
<stop offset="1" stop-color="#FB7C06"/>
</linearGradient>
<linearGradient id="paint6_linear_193_13647" x1="26.3673" y1="2.68653" x2="25.5965" y2="3.73737" gradientUnits="userSpaceOnUse">
<stop stop-color="#FEF3B3"/>
<stop offset="1" stop-color="#FEE43B"/>
</linearGradient>
<linearGradient id="paint7_linear_193_13647" x1="24.1958" y1="9.20312" x2="5.76792" y2="25.1736" gradientUnits="userSpaceOnUse">
<stop stop-color="#FFBF26"/>
<stop offset="1" stop-color="#FF2872"/>
</linearGradient>
<linearGradient id="paint8_linear_193_13647" x1="23.075" y1="12.2162" x2="15.0185" y2="15.858" gradientUnits="userSpaceOnUse">
<stop stop-color="#FFE171"/>
<stop offset="0.516562" stop-color="#FE9A15"/>
<stop offset="1" stop-color="#FF2086" stop-opacity="0.49"/>
</linearGradient>
<linearGradient id="paint9_linear_193_13647" x1="30.0774" y1="11.5859" x2="5.55737" y2="23.3519" gradientUnits="userSpaceOnUse">
<stop stop-color="#FFBF26"/>
<stop offset="1" stop-color="#FF2872"/>
</linearGradient>
<linearGradient id="paint10_linear_193_13647" x1="21.0852" y1="13.5943" x2="12.3529" y2="20.6224" gradientUnits="userSpaceOnUse">
<stop stop-color="#FFE171"/>
<stop offset="0.550196" stop-color="#FE9A15"/>
<stop offset="1" stop-color="#F92A4B" stop-opacity="0"/>
</linearGradient>
<linearGradient id="paint11_linear_193_13647" x1="15.0199" y1="17.1228" x2="28.3352" y2="-4.10493" gradientUnits="userSpaceOnUse">
<stop stop-color="#FFBF26"/>
<stop offset="1" stop-color="#FF2872"/>
</linearGradient>
<linearGradient id="paint12_linear_193_13647" x1="19.1917" y1="15.1262" x2="10.0449" y2="20.6239" gradientUnits="userSpaceOnUse">
<stop stop-color="#FFE171"/>
<stop offset="0.550196" stop-color="#FE9A15"/>
<stop offset="1" stop-color="#F92A4B"/>
</linearGradient>
<clipPath id="clip0_193_13647">
<path d="M0 10.625C0 5.61633 0 3.11199 1.556 1.556C3.11199 0 5.61633 0 10.625 0H21.375C26.3837 0 28.888 0 30.444 1.556C32 3.11199 32 5.61633 32 10.625V21.375C32 26.3837 32 28.888 30.444 30.444C28.888 32 26.3837 32 21.375 32H10.625C5.61633 32 3.11199 32 1.556 30.444C0 28.888 0 26.3837 0 21.375V10.625Z" fill="white"/>
</clipPath>
</defs>
</svg>
